<svg id="XMLID_22" data-name="XMLID 22" xmlns="http://www.w3.org/2000/svg" width="120" height="28.609" viewBox="0 0 120 28.609">
  <path id="XMLID_40" data-name="XMLID 40" d="M4.405,21.7a2.11,2.11,0,0,1-.645,1.548,2.106,2.106,0,0,1-1.554.65H0V7.816Q0,3.3,2.657,1.645A10.742,10.742,0,0,1,8.429,0,9.237,9.237,0,0,1,11.7.615a6.131,6.131,0,0,1,2.629,1.776,10.267,10.267,0,0,1,1.942,6.461,10.52,10.52,0,0,1-1.942,6.586,6.089,6.089,0,0,1-4.995,2.453,6.6,6.6,0,0,1-2.851-.58,4.856,4.856,0,0,1-2.074-2V21.7Zm7.4-12.66a6.616,6.616,0,0,0-.971-3.877A3.228,3.228,0,0,0,8.04,3.808,3.167,3.167,0,0,0,5.314,5.162a6.59,6.59,0,0,0-.909,3.877,5.874,5.874,0,0,0,.971,3.683,3.212,3.212,0,0,0,2.789,1.354,3.1,3.1,0,0,0,2.657-1.354A6.176,6.176,0,0,0,11.8,9.039Z" transform="translate(0 4.713)" fill="#fff"/>
  <path id="XMLID_37" data-name="XMLID 37" d="M0,0H2.331A2.153,2.153,0,0,1,3.892.643a2.11,2.11,0,0,1,.645,1.548V3.545H0ZM0,5.038H2.331a2.132,2.132,0,0,1,1.561.65,2.11,2.11,0,0,1,.645,1.548V22.217H0Z" transform="translate(17.045 0.062)" fill="#fff"/>
  <path id="XMLID_36" data-name="XMLID 36" d="M12.39,12.273h3.24A7.027,7.027,0,0,1,12.9,16.405a8.289,8.289,0,0,1-5.057,1.486A7.238,7.238,0,0,1,2.074,15.5Q-.007,13.178,0,8.845A9.59,9.59,0,0,1,2.012,2.384,7.245,7.245,0,0,1,7.784,0a7.789,7.789,0,0,1,6.028,2.322A8.882,8.882,0,0,1,15.5,5.611H10.961a3.765,3.765,0,0,0-.645-.967,3.123,3.123,0,0,0-2.4-.905,3.164,3.164,0,0,0-2.331.905A6.3,6.3,0,0,0,4.419,8.907c0,1.983.388,3.379,1.165,4.2a3.061,3.061,0,0,0,2.532,1.03A3.727,3.727,0,0,0,10,13.689a.821.821,0,0,0,.354-.228c.1-.1.229-.221.354-.352a2.542,2.542,0,0,1,.52-.518A1.789,1.789,0,0,1,12.39,12.273Z" transform="translate(22.345 4.713)" fill="#fff"/>
  <path id="XMLID_35" data-name="XMLID 35" d="M4.537,5.038v6.33l5.515-6.33H15.5l-6.16,6.586L15.56,22.217H10.114L6.937,16.405c-.645-1.161-1.207-1.658-1.686-1.486s-.715.435-.715.774v6.523H0V0H2.338A2.126,2.126,0,0,1,3.892.643a2.04,2.04,0,0,1,.645,1.486V5.038Z" transform="translate(38.744 0.062)" fill="#fff"/>
  <path id="XMLID_32" data-name="XMLID 32" d="M11.412,16.861a7.893,7.893,0,0,1-2.886.871c-1.02.1-1.915.159-2.692.159a6.853,6.853,0,0,1-4.086-1.258A4.785,4.785,0,0,1,0,12.466,4.475,4.475,0,0,1,1.589,8.59,9.122,9.122,0,0,1,5.64,7.042a4.015,4.015,0,0,0,.777-.1c.305-.062.652-.117,1.041-.159q2.851-.384,2.851-1.679A1.218,1.218,0,0,0,9.3,3.849a6.74,6.74,0,0,0-1.845-.29,4.937,4.937,0,0,0-1.623.256A1.757,1.757,0,0,0,4.8,4.782H.458a4.974,4.974,0,0,1,1.818-3.3A7.506,7.506,0,0,1,7.263,0a9.745,9.745,0,0,1,5.446,1.23,4.153,4.153,0,0,1,1.88,3.614v5.874a7.414,7.414,0,0,1-.937,4.036A5.637,5.637,0,0,1,11.412,16.861Zm-1.034-7.94a12.367,12.367,0,0,1-2.525.843l-1.492.325a3.818,3.818,0,0,0-1.686.843,2.6,2.6,0,0,0-.451,1.417A2.08,2.08,0,0,0,4.807,13.9a2.458,2.458,0,0,0,1.686.518,3.875,3.875,0,0,0,2.851-1.03,3.826,3.826,0,0,0,1.034-2.84V8.921Z" transform="translate(55.061 4.706)" fill="#fff"/>
  <path id="XMLID_29" data-name="XMLID 29" d="M4.412,2.2V7.36a5.387,5.387,0,0,1,2.074-2A5.832,5.832,0,0,1,9.337,4.72a6.037,6.037,0,0,1,4.995,2.515,10.371,10.371,0,0,1,1.942,6.523,10.414,10.414,0,0,1-1.942,6.523A5.438,5.438,0,0,1,11.7,22.058a10.329,10.329,0,0,1-3.274.546,10.917,10.917,0,0,1-5.772-1.617Q0,19.37,0,14.788V0H2.206A2.126,2.126,0,0,1,3.76.643,2.1,2.1,0,0,1,4.412,2.2ZM11.8,13.558a5.927,5.927,0,0,0-.971-3.614A3.087,3.087,0,0,0,8.172,8.59,3.284,3.284,0,0,0,5.383,9.882a6.217,6.217,0,0,0-.971,3.676A6.656,6.656,0,0,0,5.321,17.5a3.159,3.159,0,0,0,2.726,1.354A3.22,3.22,0,0,0,10.836,17.5,6.783,6.783,0,0,0,11.8,13.558Z" transform="translate(70.42)" fill="#fff"/>
  <path id="XMLID_26" data-name="XMLID 26" d="M2.525,16.032A6.357,6.357,0,0,1,.583,12.9,14.379,14.379,0,0,1,0,8.8a12.91,12.91,0,0,1,.486-3.49A7.326,7.326,0,0,1,2,2.4,6.766,6.766,0,0,1,6.348.111a10.052,10.052,0,0,1,4.8.422,6.563,6.563,0,0,1,3.628,3.358,10.667,10.667,0,0,1,1.1,4.969,12.4,12.4,0,0,1-.451,3.552,9.21,9.21,0,0,1-1.165,2.515,6.488,6.488,0,0,1-3.954,2.647A8.826,8.826,0,0,1,6,17.67,7.538,7.538,0,0,1,2.525,16.032ZM5.64,4.665A5.916,5.916,0,0,0,4.412,9.087a6.964,6.964,0,0,0,1.1,4.1,2.886,2.886,0,0,0,1.36.871,3.121,3.121,0,0,0,1.977.062,3.33,3.33,0,0,0,1.783-1.451,7.231,7.231,0,0,0,.839-3.745,6.574,6.574,0,0,0-.742-3.483,3.368,3.368,0,0,0-1.72-1.486,3.163,3.163,0,0,0-1.942-.035A3.353,3.353,0,0,0,5.64,4.665Z" transform="translate(87.464 4.699)" fill="#fff"/>
  <path id="XMLID_23" data-name="XMLID 23" d="M2.525,16.032A6.357,6.357,0,0,1,.583,12.9,14.379,14.379,0,0,1,0,8.8a12.91,12.91,0,0,1,.486-3.49A7.249,7.249,0,0,1,2.012,2.4,6.766,6.766,0,0,1,6.354.111a10.015,10.015,0,0,1,4.794.422,6.563,6.563,0,0,1,3.628,3.358,10.667,10.667,0,0,1,1.1,4.969,12.142,12.142,0,0,1-.458,3.552,9.01,9.01,0,0,1-1.165,2.515A6.488,6.488,0,0,1,10.3,17.573a8.828,8.828,0,0,1-4.308.1A7.511,7.511,0,0,1,2.525,16.032ZM5.64,4.665A5.916,5.916,0,0,0,4.412,9.087a6.964,6.964,0,0,0,1.1,4.1,2.886,2.886,0,0,0,1.36.871,3.12,3.12,0,0,0,1.977.062,3.33,3.33,0,0,0,1.783-1.451,7.231,7.231,0,0,0,.839-3.745,6.574,6.574,0,0,0-.742-3.483,3.368,3.368,0,0,0-1.72-1.486,3.163,3.163,0,0,0-1.942-.035A3.311,3.311,0,0,0,5.64,4.665Z" transform="translate(104.121 4.699)" fill="#fff"/>
</svg>
